<svg width="123" height="81" viewBox="0 0 123 81" fill="none" xmlns="http://www.w3.org/2000/svg">
<g clip-path="url(#clip0_1810_2076)">
<path d="M73.3076 37.1204C72.8748 38.1487 72.4026 39.1435 71.8863 40.1091C71.8224 40.2285 71.7532 40.345 71.6875 40.4632C73.7046 40.6448 75.6196 41.9071 77.3508 43.2292C77.4403 43.2979 77.5359 43.372 77.6338 43.4484C77.6935 43.2597 77.7549 43.0716 77.8105 42.8817C78.848 39.3263 79.0897 35.4203 77.7418 31.9711C77.3036 30.8503 76.7001 29.7706 75.988 28.7549C75.6769 30.0435 75.308 31.322 74.9266 32.5874C74.4508 34.1645 73.9171 35.6747 73.3088 37.121L73.3076 37.1204Z" fill="#4A235E"/>
<path d="M68.3612 77.2464C69.8315 74.4572 71.2988 71.6631 72.6879 68.8433C72.5769 66.1006 72.5321 63.3549 72.5261 60.6086C71.6277 59.0721 70.5132 57.6497 69.1725 56.4011C68.0609 55.4522 66.8724 54.6634 65.6259 54.0125C65.4785 54.2597 65.3227 54.5027 65.1555 54.7398C64.3168 55.9299 63.2495 56.9517 62.0568 57.7871C60.6426 58.7777 58.9992 59.5206 57.2734 59.5797C56.8065 59.5958 56.3451 59.5612 55.892 59.483C53.7513 59.1128 51.7951 57.7608 50.3242 56.1162C49.1637 54.8186 48.2498 53.3413 47.5072 51.7773C41.9502 53.0433 36.9322 56.834 35.0625 62.2968C36.211 62.3159 37.3596 62.3445 38.5081 62.3863C41.2511 62.4861 44.0055 62.6562 46.7204 63.085C47.8749 63.2677 50.249 63.5466 52.0148 64.13C53.6958 64.3121 54.9936 65.2891 56.0329 66.902C58.1587 70.1995 59.9376 73.7209 61.3309 77.3886C61.4514 77.7057 61.5708 78.0502 61.4807 78.3775C61.4509 78.4867 61.3965 78.5823 61.3279 78.6677H67.0294C67.1703 78.6115 67.304 78.5435 67.4276 78.4599C67.8759 78.1559 68.1272 77.6925 68.3618 77.247L68.3612 77.2464Z" fill="#662483"/>
<path d="M56.9004 76.349C56.1136 75.3374 56.1572 74.6065 54.8565 74.8854C53.7264 75.1278 52.5128 75.8331 51.3887 76.4338C51.0479 76.6159 50.7148 76.7885 50.3954 76.9354C49.0499 77.5541 47.5611 78.1864 46.1338 77.7905C45.2837 77.5546 44.5703 76.976 43.9591 76.34C43.0427 75.3876 42.2971 74.2721 41.7611 73.0635C40.0126 73.3961 38.239 73.6624 36.4727 73.9496C37.6594 75.7148 39.2533 77.28 41.0788 78.6671H59.3085C59.1868 78.5859 59.068 78.4982 58.9539 78.4086C58.1892 77.8096 57.498 77.1157 56.901 76.3484L56.9004 76.349Z" fill="#662483"/>
<path d="M72.5252 60.6092C72.5192 57.8593 72.5467 55.1082 72.5801 52.3589C71.2411 51.6202 70.1165 50.4976 69.1524 49.2627C69.7864 50.0748 69.6007 51.3999 68.7674 52.006C68.6444 52.0956 68.5029 52.1726 68.3507 52.1726C68.1883 52.1726 68.0409 52.0854 67.903 52.0012C67.5603 51.7654 67.1962 51.5581 66.832 51.3521C66.5222 52.2783 66.1276 53.1728 65.625 54.0136C66.8714 54.6645 68.06 55.4534 69.1715 56.4022C70.5123 57.6509 71.6268 59.0739 72.5252 60.6098V60.6092Z" fill="#4A235E"/>
<path d="M36.2733 78.668H41.077C39.2515 77.2808 37.6577 75.7157 36.4709 73.9505C35.8262 74.0556 35.1821 74.1625 34.5421 74.2789C26.1711 75.7993 18.2411 78.7026 9.70229 79.5661C8.05649 79.7327 6.19877 79.7727 4.89443 78.88C4.05272 78.3043 3.60142 77.4385 3.2528 76.5929C2.76927 75.4207 2.42184 74.215 2.21112 72.998C1.27271 75.4547 0.515171 77.9759 0.000596401 80.5663C-0.0799924 80.9736 8.03202 80.8112 8.89461 80.7401C11.8639 80.4971 14.7871 81.1097 17.6991 80.9838C20.8629 80.8464 24.0543 80.9832 27.2217 80.9551C31.8385 80.9145 36.4566 80.8183 41.0722 80.6535H36.2733V78.6686V78.668Z" fill="#4A235E"/>
<path d="M3.78868 65.6003C5.20704 64.4114 7.35368 64.0507 9.38034 63.7796C13.2982 63.2559 17.2488 62.8683 21.2191 62.6169C18.9227 61.3796 16.662 60.0755 14.3607 58.8477C11.6452 57.399 9.01978 56.2352 6.14426 55.1836C5.1951 57.3542 4.36235 59.5744 3.65018 61.8281C3.24366 63.115 2.78042 64.3869 2.48015 65.7048C2.31718 66.422 2.34166 67.1636 2.2742 67.8916C2.26883 67.9477 2.26167 68.0038 2.25391 68.06C2.51597 67.1314 2.98697 66.2709 3.78808 65.5997L3.78868 65.6003Z" fill="#8D3A53"/>
<path d="M14.3612 58.848C16.6625 60.0757 18.9237 61.3799 21.2196 62.6172C22.5848 62.5306 23.9519 62.4602 25.3213 62.4064C28.5604 62.2786 31.809 62.2428 35.06 62.2965C36.9296 56.8332 41.9476 53.0431 47.5047 51.7771C47.02 50.756 46.6069 49.6996 46.2517 48.6283C45.912 47.603 43.9349 42.1797 44.6793 41.1269C43.7886 40.777 42.9798 40.1804 42.3625 39.4441C41.2558 38.125 40.6952 36.4226 40.4385 34.7201C40.1156 32.5787 40.2702 30.2701 41.4229 28.4375C41.8062 27.8278 42.3369 27.267 42.9869 26.99C43.2132 23.9158 43.7809 20.8674 44.6757 17.918C44.3086 17.841 44.1068 17.7873 44.1116 17.7628C44.4196 15.9958 44.7933 14.227 45.3246 12.5019C45.0566 12.475 44.788 12.4523 44.5187 12.4374C43.5666 12.3854 42.6132 12.4141 41.6677 12.5186C38.2412 12.8978 34.9221 14.2694 32.1791 16.3726C28.6797 19.0556 26.114 22.8828 24.7464 27.076C24.2098 28.7211 23.8492 30.4427 23.9107 32.172C23.9238 32.5351 23.9608 32.9209 24.0104 33.3138C23.1478 33.6124 22.3067 33.9748 21.4996 34.4114C20.0669 35.1871 18.744 36.1521 17.4815 37.1821C13.2825 40.6062 9.70675 44.7887 6.95599 49.4566C6.29695 50.5751 5.61702 51.7293 5.10722 52.926C4.50191 54.3455 4.65831 54.644 6.08802 55.166C6.10712 55.1731 6.12503 55.1797 6.14413 55.1868C9.01966 56.2384 11.6451 57.4017 14.3606 58.851L14.3612 58.848Z" fill="#4A235E"/>
<path d="M4.89594 78.8799C6.20089 79.7726 8.05861 79.732 9.70381 79.566C18.2426 78.7031 26.1732 75.7997 34.5437 74.2788C35.1842 74.1624 35.8277 74.0555 36.4724 73.9504C38.2388 73.6625 40.0124 73.3968 41.7608 73.0642C42.2975 74.2722 43.0425 75.3883 43.9588 76.3408C44.5707 76.9761 45.2841 77.5554 46.1335 77.7912C47.5608 78.1872 49.0496 77.5548 50.3952 76.9361C50.7146 76.7892 51.0477 76.6167 51.3885 76.4345C52.5126 75.8338 53.7262 75.1286 54.8562 74.8861C56.157 74.6072 56.1134 75.3382 56.9002 76.3497C57.4971 77.1171 58.1884 77.8104 58.9531 78.4099C59.0671 78.4995 59.1859 78.5867 59.3077 78.6685H61.3272C61.3953 78.5831 61.4496 78.4875 61.48 78.3783C61.5702 78.051 61.4514 77.7065 61.3302 77.3894C59.9369 73.7217 58.158 70.2003 56.0322 66.9028C54.9929 65.2899 53.6945 64.3129 52.0141 64.1308C50.2477 63.548 47.8742 63.2685 46.7197 63.0858C44.0048 62.657 41.2504 62.4869 38.5074 62.3871C37.3589 62.3453 36.2104 62.3161 35.0618 62.2976C31.8108 62.2438 28.5622 62.2796 25.3231 62.4074C23.9543 62.4612 22.5867 62.5322 21.2214 62.6182C17.2511 62.8696 13.3005 63.2566 9.38265 63.7809C7.35599 64.052 5.20875 64.4127 3.79098 65.6016C2.98987 66.2728 2.51887 67.1333 2.25681 68.0619C2.0228 68.8925 1.95535 69.7775 1.97624 70.6344C1.99534 71.4238 2.07593 72.2133 2.21144 72.9985C2.42217 74.2155 2.76959 75.4212 3.25313 76.5934C3.60175 77.4389 4.05305 78.3048 4.89475 78.8804L4.89594 78.8799Z" fill="#B5684E"/>
<path d="M74.2535 23.5105C74.8499 23.8425 75.4576 24.2032 75.9155 24.7198C76.0916 24.9186 76.3733 25.2423 76.4276 25.5092C76.4939 25.834 76.2611 26.3709 76.1901 26.6939C75.4564 26.092 74.5735 25.6889 73.659 25.4363C72.7444 25.1838 71.7947 25.0775 70.8473 25.0249C70.9572 24.2056 71.0664 23.3869 71.1762 22.5676C71.2413 22.564 71.3082 22.5539 71.375 22.5437C69.4606 22.1371 67.548 21.7197 65.6311 21.3727C64.7763 21.2181 61.2005 20.655 57.2021 20.0166C56.2082 20.5122 55.277 21.1321 54.3982 21.8104C52.0254 23.6431 49.9724 25.889 48.3583 28.4161C48.0431 28.91 47.7434 29.4265 47.5231 29.9681C47.2139 29.3202 46.8408 28.7016 46.334 28.1349C45.6129 27.3287 44.5784 26.6623 43.5098 26.8325C43.3277 26.8611 43.1558 26.9185 42.9893 26.9895C42.3392 27.2666 41.8085 27.8273 41.4252 28.437C40.2719 30.2703 40.1179 32.5783 40.4409 34.7197C40.6976 36.4227 41.2581 38.1246 42.3648 39.4437C42.9821 40.1794 43.791 40.776 44.6816 41.1265C43.9372 42.1793 45.9137 47.6026 46.254 48.6279C46.6092 49.6992 47.0223 50.7556 47.507 51.7767C48.249 53.3406 49.163 54.818 50.324 56.1156C51.7949 57.7601 53.7512 59.1121 55.8918 59.4823C56.3449 59.5606 56.8064 59.5952 57.2732 59.5791C58.999 59.52 60.6418 58.7771 62.0566 57.7864C63.2493 56.9516 64.3166 55.9293 65.1554 54.7392C65.3225 54.5021 65.4783 54.2591 65.6258 54.0118C66.1284 53.171 66.523 52.2765 66.8328 51.3503C66.3594 51.0822 65.8842 50.8165 65.4485 50.497C65.2598 50.3591 65.0813 50.2068 64.9088 50.0456C64.4402 49.6078 64.0194 49.1026 63.5824 48.6351C63.389 48.4285 63.1896 48.2099 63.1168 47.9364C63.0213 47.5787 63.1621 47.2037 63.3155 46.8669C64.3978 44.4855 66.2484 42.4605 68.5222 41.1689C69.5967 40.5586 70.6557 40.3693 71.6878 40.4625C71.7535 40.3436 71.8227 40.2278 71.8866 40.1084C69.2678 39.6456 66.2818 41.3331 64.2193 43.0219C62.1909 44.6933 60.7379 47.5148 61.8542 50.156C60.8662 50.3734 59.8335 50.4241 58.8157 50.3125C57.7716 50.1978 56.7443 49.9142 55.7993 49.4681C52.6647 47.9872 49.7366 44.4777 48.1422 41.0471C47.7655 41.2609 47.3339 41.3863 46.9023 41.4382C46.4468 41.4931 45.9907 41.4681 45.5448 41.3809C43.6465 39.4354 42.6538 36.3857 43.5385 33.7308C43.8316 32.8506 44.3599 31.9758 45.1162 31.4007C44.8518 31.0514 44.576 30.7098 44.3091 30.3622C44.1277 30.1252 43.9868 29.7137 44.2584 29.5901C44.3515 29.5477 44.4608 29.5656 44.5581 29.5961C44.8912 29.7012 45.1622 29.9425 45.4075 30.1915C45.6338 30.422 45.8451 30.6662 46.0433 30.9206C46.7304 30.7486 47.4921 30.8573 48.0711 31.2848C48.0359 31.1899 47.9995 31.0961 47.9637 31.0024C51.0708 28.0411 54.917 25.794 58.8939 24.5639C60.7516 24.0683 62.6094 24.0683 64.5906 24.4397C66.6961 25.0589 66.6961 27.4129 67.5629 29.0234C67.9342 27.6607 69.1729 27.0415 70.2874 26.298C72.5624 24.7538 74.8368 25.769 76.2372 27.6643C76.5226 26.3154 76.7249 24.955 76.793 23.587C75.543 23.3845 74.2953 23.1487 73.0507 22.8937C73.4626 23.077 73.8607 23.2908 74.2547 23.5099L74.2535 23.5105ZM64.9142 24.4696C63.3132 24.208 61.6942 24.0175 60.0717 24.0414C58.4492 24.0653 56.8189 24.3065 55.3026 24.8846C55.3074 24.8828 55.3343 24.3179 55.345 24.2606C55.3856 24.0396 55.4543 23.8246 55.5468 23.6198C55.6662 23.3553 55.7915 23.1767 56.0381 23.025C56.7855 22.5658 57.592 22.1592 58.4158 21.8576C58.9005 21.6803 59.4007 21.5435 59.9117 21.4683C60.5958 21.368 61.2913 21.3799 61.9814 21.4157C62.983 21.4671 63.9937 21.5704 64.9417 21.9006C64.9918 21.9179 65.0437 21.9376 65.0772 21.9782C65.1112 22.0183 65.1213 22.0726 65.1297 22.1245C65.2551 22.908 65.1804 23.7225 64.9142 24.4702V24.4696Z" fill="#8D3A53"/>
<path d="M70.2866 26.2988C69.172 27.0423 67.934 27.6615 67.5621 29.0242C66.6953 27.4137 66.6953 25.0603 64.5898 24.4405C62.6085 24.0691 60.7508 24.0691 58.8931 24.5647C54.9162 25.7942 51.0694 28.0413 47.9629 31.0032C47.9987 31.0969 48.0351 31.1907 48.0703 31.2856C47.4907 30.8581 46.729 30.7494 46.0425 30.9214C47.1671 32.3641 47.8315 34.1651 47.8894 35.9954C47.9145 36.7878 47.7062 38.2956 46.5958 38.2096C45.7529 38.1445 44.8569 36.3901 45.458 35.7207C45.6329 35.5254 45.9392 35.4968 46.1875 35.5822C46.4359 35.6675 46.6394 35.8449 46.8364 36.0187C46.7934 34.6763 46.3899 33.347 45.6795 32.207C45.5058 31.9288 45.3136 31.663 45.1154 31.4015C44.359 31.9771 43.8307 32.852 43.5376 33.7316C42.653 36.3871 43.6457 39.4362 45.544 41.3817C45.9893 41.4695 46.4454 41.494 46.9015 41.439C47.3337 41.3871 47.7647 41.2611 48.1414 41.0479C49.7358 44.4779 52.6645 47.988 55.7985 49.4689C56.7429 49.915 57.7708 50.1986 58.8149 50.3133C59.8321 50.4249 60.8654 50.3742 61.8534 50.1568C60.7377 47.515 62.1901 44.6935 64.2185 43.0227C66.2816 41.3345 69.2676 39.6464 71.8858 40.1092C72.4022 39.1442 72.8744 38.1487 73.3071 37.1204C73.916 35.6741 74.4491 34.1645 74.9249 32.5868C75.3063 31.3215 75.6753 30.0436 75.9863 28.7543C76.074 28.3919 76.1588 28.0288 76.2358 27.6645C74.8354 25.7692 72.5604 24.7546 70.286 26.2982L70.2866 26.2988ZM60.8057 27.3516C60.9096 27.4209 60.9478 27.5529 60.9735 27.6753C61.229 28.866 61.0636 30.1421 60.5144 31.2289C60.4088 31.4373 60.2792 31.6493 60.0733 31.7598C59.8667 31.8703 59.5659 31.8332 59.4566 31.6266C59.4083 31.5353 59.4035 31.4284 59.4023 31.3257C59.3963 30.8885 60.0709 26.8625 60.8057 27.3522V27.3516ZM63.8526 41.2664C62.9792 42.02 62.1775 42.8561 61.4606 43.7601C61.7943 42.9313 62.2468 42.1508 62.8002 41.4498C62.6987 41.5781 61.608 41.0724 61.4331 41.0067C60.3795 40.6108 59.2907 40.0966 58.5385 39.2433C58.0347 38.6718 57.6878 37.9278 57.7302 37.167C58.1642 38.0251 58.911 38.6933 59.7366 39.1848C61.2403 40.0799 62.9321 40.5648 64.6632 40.7391C64.357 40.8454 64.0985 41.055 63.8526 41.267V41.2664ZM68.3059 36.872C67.7776 37.1037 67.1627 37.0828 66.6135 36.9054C66.4004 36.8362 66.1515 36.6254 66.2738 36.4379C66.3228 36.3632 66.4147 36.3316 66.5001 36.3053C66.8833 36.1889 67.2785 36.0826 67.6116 35.8592C67.9871 35.6072 68.2342 35.2059 68.1739 34.7473C68.1363 34.4577 67.6092 34.0087 67.8379 33.7991C68.5047 33.1876 69.3171 35.1432 69.2908 35.5541C69.2538 36.1297 68.8336 36.6403 68.3059 36.8726V36.872ZM71.6751 32.2859C71.5694 32.4943 71.4399 32.7069 71.2339 32.8167C71.028 32.9272 70.7271 32.8902 70.6173 32.6836C70.5689 32.5928 70.5641 32.4853 70.563 32.3826C70.557 31.9455 71.2315 27.9189 71.9664 28.4086C72.0703 28.4778 72.1085 28.6098 72.1341 28.7322C72.3896 29.9229 72.2249 31.1991 71.6751 32.2859Z" fill="#B5684E"/>
<path d="M46.3324 28.1352C46.8392 28.7019 47.2123 29.3206 47.5216 29.9685C47.7418 29.4269 48.0415 28.9103 48.3567 28.4165C49.9703 25.8893 52.0238 23.6435 54.3967 21.8108C55.2754 21.1318 56.2066 20.512 57.2006 20.017C55.8103 19.7948 54.3692 19.5643 52.9729 19.3386C49.3142 18.7462 45.9689 18.1885 44.6771 17.918C43.7816 20.8673 43.2145 23.9164 42.9883 26.9899C43.1548 26.9188 43.3268 26.8621 43.5088 26.8328C44.5774 26.6627 45.6113 27.3291 46.333 28.1352H46.3324Z" fill="#431818"/>
<path d="M46.8361 36.0182C46.6391 35.845 46.4355 35.6671 46.1872 35.5817C45.9394 35.4963 45.6332 35.525 45.4577 35.7202C44.8566 36.3896 45.7526 38.1441 46.5955 38.2092C47.7058 38.2951 47.9142 36.7873 47.8891 35.9949C47.8312 34.1653 47.1668 32.3636 46.0421 30.9209C45.8439 30.6665 45.6326 30.4217 45.4064 30.1918C45.1616 29.9428 44.8906 29.7015 44.5569 29.5964C44.4596 29.566 44.3503 29.5481 44.2572 29.5905C43.9856 29.7147 44.1265 30.1261 44.308 30.3626C44.5748 30.7101 44.8506 31.0517 45.115 31.401C45.3132 31.6626 45.5054 31.9283 45.6792 32.2066C46.3889 33.3466 46.7925 34.6758 46.8361 36.0182Z" fill="#431818"/>
<path d="M67.8386 33.7997C67.61 34.0093 68.1365 34.4583 68.1747 34.7479C68.235 35.2071 67.9878 35.6078 67.6123 35.8598C67.2798 36.0832 66.8847 36.1895 66.5008 36.3059C66.4154 36.3322 66.3235 36.3638 66.2746 36.4385C66.1522 36.626 66.4011 36.8374 66.6142 36.906C67.1628 37.0834 67.7783 37.1049 68.3066 36.8726C68.8349 36.6409 69.2546 36.1303 69.2916 35.5541C69.3178 35.1433 68.5054 33.1876 67.8386 33.7991V33.7997Z" fill="#431818"/>
<path d="M60.0734 31.7599C60.2793 31.6495 60.4088 31.4375 60.5145 31.2291C61.0643 30.1423 61.2291 28.8661 60.9736 27.6754C60.9473 27.5536 60.9091 27.421 60.8058 27.3518C60.0716 26.8621 59.3964 30.8881 59.4024 31.3252C59.4036 31.4285 59.4084 31.5354 59.4567 31.6262C59.5665 31.8328 59.8674 31.8692 60.0734 31.7593V31.7599Z" fill="#431818"/>
<path d="M71.966 28.4094C71.2317 27.9197 70.5566 31.9457 70.5625 32.3834C70.5637 32.4861 70.5685 32.5936 70.6169 32.6844C70.7267 32.891 71.0276 32.9274 71.2335 32.8176C71.4401 32.7077 71.569 32.4951 71.6747 32.2867C72.2245 31.2005 72.3892 29.9238 72.1337 28.733C72.1075 28.6112 72.0693 28.4787 71.966 28.4094Z" fill="#431818"/>
<path d="M57.7301 37.1676C57.6877 37.9284 58.0351 38.6724 58.5383 39.2439C59.2905 40.0978 60.3793 40.612 61.433 41.0073C61.6085 41.073 62.6985 41.5793 62.8 41.4504C62.2466 42.1514 61.7941 42.9319 61.4604 43.7607C62.1768 42.8566 62.9791 42.02 63.8524 41.267C64.0984 41.055 64.3568 40.8454 64.6631 40.7391C62.9319 40.5648 61.2401 40.0799 59.7364 39.1848C58.9102 38.6933 58.164 38.0251 57.7301 37.167V37.1676Z" fill="#431818"/>
<path d="M65.0753 21.9779C65.0413 21.9373 64.9893 21.9176 64.9398 21.9003C63.9924 21.5701 62.9818 21.4668 61.9795 21.4154C61.2894 21.3796 60.594 21.3682 59.9099 21.468C59.3989 21.5426 58.8986 21.68 58.4139 21.8573C57.5901 22.1589 56.7836 22.5655 56.0362 23.0247C55.7897 23.1764 55.6637 23.355 55.5449 23.6195C55.4524 23.8243 55.3838 24.0393 55.3432 24.2602C55.3324 24.3176 55.3062 24.8825 55.3008 24.8843C56.817 24.3062 58.4473 24.065 60.0698 24.0411C61.6924 24.0178 63.3107 24.2077 64.9123 24.4693C65.1786 23.7222 65.2538 22.9071 65.1278 22.1236C65.1195 22.0717 65.1093 22.0174 65.0753 21.9773V21.9779Z" fill="#431818"/>
<path d="M70.8443 25.0251C71.7917 25.0771 72.7415 25.184 73.656 25.4365C74.5711 25.6891 75.4534 26.0922 76.1871 26.6941C76.2581 26.3711 76.4909 25.8342 76.4247 25.5094C76.3704 25.2431 76.0886 24.9194 75.9125 24.72C75.4546 24.2034 74.8469 23.8433 74.2506 23.5107C73.8572 23.2916 73.4584 23.0778 73.0465 22.8945C72.4878 22.7798 71.9296 22.6628 71.3715 22.5439C71.3046 22.5541 71.2377 22.5642 71.1727 22.5678C71.0628 23.3871 70.9536 24.2058 70.8438 25.0251H70.8443Z" fill="#431818"/>
<path d="M71.6879 40.4639C70.6557 40.3707 69.5967 40.56 68.5222 41.1703C66.2478 42.4619 64.3979 44.4869 63.3156 46.8683C63.1622 47.2051 63.0219 47.5801 63.1168 47.9378C63.1896 48.2113 63.3896 48.4299 63.5824 48.6365C64.0194 49.1046 64.4409 49.6092 64.9089 50.047C65.0814 50.2082 65.2599 50.3605 65.4485 50.4984C65.8843 50.8173 66.3595 51.0836 66.8329 51.3517C67.1976 51.5583 67.5611 51.7656 67.9038 52.0008C68.0423 52.085 68.1897 52.1722 68.3515 52.1722C68.5037 52.1722 68.6452 52.0952 68.7682 52.0056C69.6015 51.3995 69.7872 50.0744 69.1532 49.2623C70.1173 50.4972 71.242 51.6198 72.5809 52.3585C72.5469 55.1084 72.5194 57.8589 72.526 60.6088C72.532 63.3551 72.5773 66.1008 72.6878 68.8435C72.7003 69.1468 72.7111 69.4508 72.7254 69.7541L73.5689 67.5286L80.9681 48.0131C80.6882 47.3878 80.3801 46.7758 80.0381 46.1798C79.6148 45.1127 78.4973 44.1268 77.6323 43.4478C77.535 43.3714 77.4395 43.2967 77.3494 43.2287C75.6182 41.9066 73.7038 40.6448 71.6861 40.4627L71.6879 40.4639Z" fill="#B5684E"/>
<path d="M75.9816 71.1424C74.86 70.1141 74.1621 68.8738 73.5675 67.5284L72.7241 69.754L69.3441 78.6671H36.2734V80.652H110.299L116.732 63.5293C110.345 68.8893 102.483 71.5968 94.4335 73.7436C88.2419 75.3541 80.8116 76.0969 75.9816 71.1424Z" fill="#EA7119"/>
<path d="M80.9656 48.0131L73.5664 67.5286C74.161 68.874 74.8588 70.1143 75.9805 71.1426C80.8104 76.0978 88.2401 75.3543 94.4323 73.7438C102.482 71.5964 110.344 68.889 116.731 63.5295L122.998 46.8457H81.4086L80.9656 48.0131Z" fill="#F39200"/>
<path d="M56.0434 12.3004C54.5576 14.5654 53.5577 16.911 52.9727 19.3372C54.3683 19.5629 55.8094 19.794 57.2003 20.0156C61.1987 20.6539 64.775 21.217 65.6293 21.3717C67.5455 21.7186 69.4581 22.1361 71.3732 22.5427C71.9313 22.6609 72.4895 22.7786 73.0482 22.8932C74.2935 23.1482 75.5405 23.3841 76.7905 23.5865C77.0574 23.6295 77.3242 23.6761 77.5916 23.7155C81.1453 24.2422 84.5975 25.2735 88.2371 25.6091C89.0341 25.6825 90.216 25.8396 90.8333 25.4371C91.2279 25.1797 91.3914 24.6931 91.075 23.8093C90.779 22.9822 90.028 22.4125 89.2836 21.9462C87.3948 20.7632 85.3132 19.9344 83.1958 19.2614C82.1297 18.9222 81.0516 18.6248 79.9711 18.3364C78.6691 17.9882 78.8554 17.8258 78.8679 16.5539C78.8954 13.8816 78.5277 10.9807 77.4233 8.46427C70.5076 4.29556 61.013 4.90166 56.0446 12.301L56.0434 12.3004Z" fill="#F7EFEC"/>
<path d="M44.6769 17.9174C45.9687 18.1879 49.314 18.7456 52.9727 19.338C53.5578 16.9118 54.5577 14.5656 56.0435 12.3012C61.0113 4.90188 70.5065 4.29637 77.4222 8.46448C77.0204 7.54965 76.522 6.68497 75.9083 5.90091C73.8255 3.2412 69.2421 1.39003 65.7714 0.559989C61.93 -0.358429 57.666 -0.200184 54.1487 1.43064C50.9031 2.93546 48.4926 5.58382 46.9513 8.49613C46.2684 9.78538 45.7484 11.1302 45.3264 12.5012C44.7951 14.2264 44.4214 15.9952 44.1133 17.7621C44.1092 17.7866 44.3109 17.841 44.6775 17.9174H44.6769Z" fill="#DEC5C6"/>
</g>
<defs>
<clipPath id="clip0_1810_2076">
<rect width="123" height="81" fill="white"/>
</clipPath>
</defs>
</svg>
